<?xml version="1.0" encoding="iso-8859-1"?>
<!-- Generator: Adobe Illustrator 18.0.0, SVG Export Plug-In . SVG Version: 6.00 Build 0)  -->
<!DOCTYPE svg PUBLIC "-//W3C//DTD SVG 1.1//EN" "http://www.w3.org/Graphics/SVG/1.1/DTD/svg11.dtd">
<svg version="1.1" id="Capa_1" xmlns="http://www.w3.org/2000/svg" xmlns:xlink="http://www.w3.org/1999/xlink" x="0px" y="0px"
	 viewBox="0 0 465.097 465.097" style="enable-background:new 0 0 465.097 465.097;" xml:space="preserve">
<path d="M391.437,138.084c-6.329-2.182-13.334,0.093-17.174,5.574L247.548,324.541v-90.909
	c49.49-7.281,87.603-50.022,87.603-101.504V15c0-5.8-3.343-11.079-8.585-13.56c-5.243-2.479-11.443-1.717-15.929,1.963
	l-46.364,38.035l-20-25.063c-2.847-3.566-7.161-5.644-11.725-5.644s-8.878,2.077-11.725,5.645l-20,25.063L154.459,3.403
	c-4.483-3.678-10.686-4.441-15.928-1.963c-5.242,2.48-8.585,7.76-8.585,13.56v117.128c0,51.481,38.113,94.223,87.603,101.504v90.909
	L90.833,143.658c-3.84-5.481-10.845-7.757-17.174-5.574c-6.327,2.181-10.444,8.289-10.09,14.973
	c0.117,2.21,3.104,54.816,24.182,115.601c12.492,36.024,28.792,67.45,48.449,93.404c22.782,30.083,50.121,52.806,81.348,67.717
	v20.318c0,8.284,6.716,15,15,15s15-6.716,15-15v-20.318c31.227-14.912,58.566-37.635,81.349-67.717
	c19.656-25.954,35.957-57.38,48.448-93.404c21.078-60.784,24.065-113.391,24.183-115.601
	C401.88,146.373,397.764,140.265,391.437,138.084z M159.946,132.128V46.707l33.606,27.568c3.103,2.546,7.098,3.742,11.088,3.32
	c3.991-0.421,7.647-2.424,10.15-5.562l17.758-22.254l17.759,22.255c2.503,3.137,6.159,5.14,10.15,5.561
	c3.992,0.425,7.985-0.773,11.088-3.32l33.605-27.568v85.421c0,40.034-32.569,72.604-72.603,72.604S159.946,172.162,159.946,132.128z
	 M116.339,259.527c-5.63-16.138-9.899-31.777-13.127-45.913l114.337,163.214v19.095
	C172.883,369.951,138.894,324.184,116.339,259.527z M247.548,395.886v-19.058L361.784,213.76
	C348.48,271.634,317.694,354.86,247.548,395.886z"/>
<g>
</g>
<g>
</g>
<g>
</g>
<g>
</g>
<g>
</g>
<g>
</g>
<g>
</g>
<g>
</g>
<g>
</g>
<g>
</g>
<g>
</g>
<g>
</g>
<g>
</g>
<g>
</g>
<g>
</g>
</svg>
