<svg id="_x33_0" enable-background="new 0 0 64 64" height="512" viewBox="0 0 64 64" width="512" xmlns="http://www.w3.org/2000/svg"><g><path d="m28 13c1.103 0 2-.897 2-2v-.78c-.532.48-1.229.78-2 .78s-1.468-.301-2-.78v.78c0 1.103.897 2 2 2z"/><path d="m25 10h.78c-.479-.532-.78-1.229-.78-2s.301-1.468.78-2h-.78c-1.103 0-2 .897-2 2s.897 2 2 2z"/><path d="m30 5.78v-.78c0-1.103-.897-2-2-2s-2 .897-2 2v.78c.532-.479 1.229-.78 2-.78s1.468.301 2 .78z"/><path d="m21 13.78c.532-.48 1.229-.78 2-.78 1.654 0 3 1.346 3 3 0 .771-.301 1.468-.78 2h.78c1.103 0 2-.897 2-2 0-.364-.1-.717-.284-1.025-1.769-.126-3.227-1.393-3.615-3.077-.615-.142-1.171-.433-1.642-.823-.843.238-1.459 1.019-1.459 1.925z"/><circle cx="28" cy="8" r="1"/><path d="m8 28c0 1.103.897 2 2 2s2-.897 2-2v-.78c-.532.48-1.229.78-2 .78s-1.468-.301-2-.78z"/><path d="m13.935 44.771-2.6-13.001c-.418.148-.867.23-1.335.23v14.965c1.555-.164 2.975-.951 3.935-2.194z"/><path d="m13 27c1.103 0 2-.897 2-2s-.897-2-2-2h-.78c.48.532.78 1.229.78 2s-.301 1.468-.78 2z"/><circle cx="10" cy="25" r="1"/><path d="m11 48.82c-.328.069-.661.116-1 .143v.735c0 1.05-.308 2.067-.891 2.941-.033.05-.074.094-.109.144v4.217h2z"/><path d="m51.582 18.825c.529-.404 1.16-.676 1.849-.775-3.215-7.862-10.841-13.05-19.431-13.05h-.36c.6.528 1.029 1.237 1.228 2.036 7.359.344 13.931 5.014 16.714 11.789z"/><circle cx="14" cy="18" r="1"/><path d="m43 11.611v2.302c0 3.803 1.533 7.409 4.155 10.036.387-1.41 1.514-2.517 2.947-2.848.021-.092.059-.178.086-.267-1.247-3.893-3.849-7.127-7.188-9.223z"/><path d="m55 52.783c-.035-.049-.076-.093-.109-.144-.583-.874-.891-1.892-.891-2.942v-.735c-.339-.026-.672-.073-1-.143v8.181h2z"/><path d="m52 22v.78c.532-.48 1.229-.78 2-.78s1.468.301 2 .78v-.78c0-1.103-.897-2-2-2s-2 .897-2 2z"/><path d="m37 9.281v4.633c0 8.686 5.343 16.183 13.396 19.008l.487-2.436c-.367-.46-.645-.995-.781-1.587-1.133-.261-2.079-1.008-2.618-2.005-4.063-3.025-6.484-7.856-6.484-12.981v-3.37c-1.268-.579-2.609-1.008-4-1.262z"/><path d="m51 23c-1.103 0-2 .897-2 2s.897 2 2 2h.78c-.48-.532-.78-1.229-.78-2s.301-1.468.78-2z"/><path d="m54 46.965v-14.965c-.468 0-.917-.082-1.334-.23l-2.6 13.001c.959 1.243 2.379 2.03 3.934 2.194z"/><path d="m59.303 53h.584l-2.459-22.954c-.35.583-.84 1.071-1.428 1.413v18.238c0 .654.192 1.287.555 1.832.613.921 1.641 1.471 2.748 1.471z"/><path d="m56 28v-.78c-.532.48-1.229.78-2 .78s-1.468-.301-2-.78v.78c0 1.103.897 2 2 2s2-.897 2-2z"/><path d="m57 27c1.103 0 2-.897 2-2s-.897-2-2-2h-.78c.48.532.78 1.229.78 2s-.301 1.468-.78 2z"/><circle cx="54" cy="25" r="1"/><path d="m31 6h-.78c.479.532.78 1.229.78 2s-.301 1.468-.78 2h.78c1.103 0 2-.897 2-2s-.897-2-2-2z"/><path d="m8.587 14.829c.444-.339.953-.598 1.515-.727.124-.537.371-1.025.693-1.456l-3.959-.66.329-1.973 3.864.644c-.626-.699-1.016-1.612-1.025-2.621-2.366.172-4.679.95-6.666 2.247l.399.666c1.108 1.849 2.82 3.205 4.85 3.88z"/><path d="m7 23c-1.103 0-2 .897-2 2s.897 2 2 2h.78c-.479-.532-.78-1.229-.78-2s.301-1.468.78-2z"/><path d="m11 16c-1.103 0-2 .897-2 2 0 .046.014.091.018.137.316-.081.641-.137.982-.137.352 0 .689.059 1.015.145-.003-.049-.015-.095-.015-.145 0-.771.301-1.468.78-2z"/><path d="m10.528 6.019c.338-.59.823-1.083 1.403-1.436-1.515-1.028-3.301-1.583-5.174-1.583h-.757v.764c0 .984.18 1.969.517 2.896 1.303-.382 2.651-.6 4.011-.641z"/><path d="m4.697 53c1.107 0 2.134-.55 2.748-1.471.363-.545.555-1.177.555-1.832v-18.238c-.588-.342-1.078-.829-1.428-1.412l-2.459 22.953z"/><path d="m30 16c0 1.318-.649 2.479-1.636 3.208-1.778 7.363-7.208 13.278-14.364 15.695l.392 1.958c9.826-3.24 16.608-12.512 16.608-22.948v-.273c-.349.396-.78.713-1.259.946.169.448.259.926.259 1.414z"/><path d="m50.001 34.897c-9.006-3.032-15.001-11.341-15.001-20.984v-4.871c-.05-.003-.101-.004-.151-.006-.278 1.029-.948 1.892-1.849 2.417v2.461c0 10.436 6.782 19.708 16.608 22.948z"/><path d="m47 59h14v2h-14z"/><path d="m3 59h14.001v2h-14.001z"/><path d="m10 20c-1.103 0-2 .897-2 2v.78c.532-.479 1.229-.78 2-.78s1.468.301 2 .78v-.78c0-1.103-.897-2-2-2z"/><path d="m16.22 20h.78c.456 0 .879-.164 1.222-.432-.492-.246-.929-.584-1.28-1.001-.105.547-.363 1.035-.722 1.433z"/><path d="m16.018 15.795c.016-.308.067-.606.149-.892-1.1-.235-2.032-.918-2.594-1.855-.898.197-1.573.996-1.573 1.952v.78c.532-.48 1.229-.78 2-.78.779 0 1.484.306 2.018.795z"/><path d="m13.861 20.986c.01.039.028.076.037.116.681.157 1.294.491 1.793.947.194-.312.309-.669.309-1.049v-.78c-.532.48-1.229.78-2 .78-.048 0-.092-.012-.139-.014z"/><path d="m20 14c-1.103 0-2 .897-2 2s.897 2 2 2h.78c-.48-.532-.78-1.229-.78-2s.301-1.468.78-2z"/><path d="m25.19 22.33c-.631.416-1.379.67-2.19.67-1.454 0-2.724-.783-3.424-1.947-.481.406-1.053.7-1.676.844-.168.737-.547 1.406-1.085 1.938.113.371.185.759.185 1.165 0 1.896-1.327 3.489-3.102 3.898-.137.592-.414 1.127-.781 1.587l.489 2.443c5.182-1.824 9.346-5.676 11.584-10.598z"/><circle cx="23" cy="16" r="1"/><path d="m21 19c0 1.103.897 2 2 2s2-.897 2-2v-.78c-.532.48-1.229.78-2 .78s-1.468-.301-2-.78z"/><path d="m14 10h.78c-.479-.532-.78-1.229-.78-2s.301-1.468.78-2h-.78c-1.103 0-2 .897-2 2s.897 2 2 2z"/><path d="m17 13c.153 0 .302-.034.451-.068.473-.394 1.033-.688 1.652-.83.275-1.182 1.085-2.166 2.159-2.69-.166-.441-.262-.915-.262-1.412 0-.536.115-1.042.307-1.509-.359-.311-.82-.491-1.307-.491h-.78c.479.532.78 1.229.78 2 0 1.654-1.346 3-3 3-.771 0-1.468-.301-2-.78v.78c0 1.103.897 2 2 2z"/><path d="m19 5.78v-.78c0-1.103-.897-2-2-2s-2 .897-2 2v.78c.532-.479 1.229-.78 2-.78s1.468.301 2 .78z"/><circle cx="17" cy="8" r="1"/></g></svg>